<?xml version="1.0" encoding="UTF-8"?>
<svg width="86px" height="86px" viewBox="0 0 86 86" version="1.1" xmlns="http://www.w3.org/2000/svg" xmlns:xlink="http://www.w3.org/1999/xlink">
    <!-- Generator: Sketch 54.1 (76490) - https://sketchapp.com -->
    <title>icons8-money_bag</title>
    <desc>Created with Sketch.</desc>
    <g id="Page-1" stroke="none" stroke-width="1" fill="none" fill-rule="evenodd">
        <g id="Splash" transform="translate(-145.000000, -336.000000)">
            <g id="Group" transform="translate(31.000000, 336.000000)">
                <g id="icons8-money_bag" transform="translate(114.000000, 0.000000)">
                    <g id="Group" fill-rule="nonzero">
                        <circle id="Oval" fill="#009FDA" cx="2.20512821" cy="19.8461538" r="2.20512821"></circle>
                        <circle id="Oval" fill="#009FDA" cx="72.7692308" cy="2.20512821" r="1.1025641"></circle>
                        <circle id="Oval" fill="#002244" cx="43" cy="43" r="40.7948718"></circle>
                        <circle id="Oval" fill="#009FDA" cx="79.3846154" cy="4.41025641" r="4.41025641"></circle>
                        <circle id="Oval" fill="#009FDA" cx="83.7948718" cy="14.3333333" r="2.20512821"></circle>
                        <circle id="Oval" fill="#009FDA" cx="77.1794872" cy="71.6666667" r="2.20512821"></circle>
                        <circle id="Oval" fill="#009FDA" cx="4.41025641" cy="57.3333333" r="4.41025641"></circle>
                        <circle id="Oval" fill="#009FDA" cx="15.4358974" cy="83.7948718" r="2.20512821"></circle>
                        <circle id="Oval" fill="#009FDA" cx="8.26923077" cy="46.8589744" r="2.75641026"></circle>
                    </g>
                    <g id="Group" transform="translate(24.000000, 19.000000)">
                        <g fill="#009FDA" fill-rule="nonzero">
                            <path d="M19.3614255,46.0166286 C8.86793617,46.0166286 0.580851064,46.0166286 0.580851064,36.0844 C0.580851064,27.9921286 6.84989362,18.0826571 14.2715106,14.4448857 L14.8374255,14.1675857 L9.98648936,5.7053 C9.58570213,4.31458571 9.75414894,2.97191429 10.452,2.01527143 C10.9888723,1.27777143 11.7672128,0.872357143 12.6434681,0.872357143 C13.8408511,0.872357143 15.1079362,1.63935714 16.2090638,3.03175714 C17.2313617,4.32301429 18.3316596,4.92481429 19.6709362,4.92481429 C20.4899362,4.92481429 21.4309149,4.69892857 22.6307872,4.21597143 C23.7194681,3.77768571 24.7069149,3.55685714 25.5674043,3.55685714 C26.6726809,3.55685714 27.5265319,3.93614286 27.9737872,4.62728571 C28.3978085,5.2805 28.431,6.15117143 28.0650638,7.01425714 L23.8771277,14.1642143 L24.4480213,14.4440429 C31.8712979,18.0792857 38.142,27.9904429 38.142,36.0852429 C38.142,46.0166286 29.8549149,46.0166286 19.3614255,46.0166286 Z" id="Path"></path>
                            <path d="M12.6426383,1.46151429 C13.6607872,1.46151429 14.7668936,2.15012857 15.756,3.40008571 C16.8969574,4.84221429 18.1416383,5.51397143 19.671766,5.51397143 C20.5662766,5.51397143 21.5744681,5.27544286 22.8457021,4.76467143 C23.8663404,4.3542 24.7824255,4.14601429 25.5690638,4.14601429 C26.4718723,4.14601429 27.1539574,4.43174286 27.4900213,4.9501 C27.7945532,5.41957143 27.818617,6.0593 27.5588936,6.71504286 L23.7020426,13.3095571 L23.0548085,14.4162286 L24.195766,14.9750429 C31.4406383,18.5234714 37.5611489,28.1902 37.5611489,36.0844 C37.5611489,44.9934 30.9850851,45.4274714 19.3614255,45.4274714 C7.73776596,45.4274714 1.16170213,44.9934 1.16170213,36.0844 C1.16170213,28.1918857 7.28055319,18.526 14.523766,14.9767286 L15.654766,14.4221286 L15.0232979,13.3196714 L10.5250213,5.47182857 C10.1997447,4.28424286 10.3416383,3.15734286 10.9191702,2.36505714 C11.3431915,1.78264286 11.9555745,1.46151429 12.6426383,1.46151429 L12.6426383,1.46151429 Z M12.6426383,0.281514286 C10.2470426,0.281514286 8.5152766,2.83284286 9.44878723,5.94045714 L14.0184255,13.9122 C6.38521277,17.6544857 0,27.7005 0,36.0844 C0,46.6074714 8.71276596,46.6074714 19.3614255,46.6074714 C30.0100851,46.6074714 38.7228511,46.6074714 38.7228511,36.0844 C38.7228511,27.6996571 32.3359787,17.6519571 24.7002766,13.9122 L28.598617,7.24604286 C29.468234,5.19368571 28.4268511,2.96601429 25.5674043,2.96601429 C24.6878298,2.96601429 23.6373191,3.17672857 22.4167021,3.66811429 C21.3570638,4.0946 20.463383,4.33481429 19.6709362,4.33481429 C18.5233404,4.33481429 17.5865106,3.83162857 16.6612979,2.66174286 C15.3311489,0.9794 13.895617,0.281514286 12.6426383,0.281514286 L12.6426383,0.281514286 Z" id="Shape"></path>
                        </g>
                        <text id="£" font-family="ArialRoundedMTBold, Arial Rounded MT Bold" font-size="18" font-weight="normal" line-spacing="42" letter-spacing="-0.3374999" fill="#FFFFFF">
                            <tspan x="15.514483" y="27.2">£</tspan>
                        </text>
                        <path d="M10.1364338,30.4 C10.1122319,30.4 10.0880301,30.3983334 10.0629937,30.3950002 C9.74336234,30.3550022 9.51553114,30.0641833 9.55558937,29.7441992 C10.3993159,23.0020336 11.7379286,18.1997718 13.8969004,14.1724716 L14.203179,13.6 L14.740627,13.9649819 C19.5968532,17.2589852 24.5156705,14.1024751 24.5640742,14.07081 C24.8336327,13.8949854 25.1966605,13.9691484 25.3727498,14.2374684 C25.5505082,14.5066217 25.4762336,14.8682704 25.2058405,15.0457616 C25.151595,15.0807599 19.9473628,18.4222608 14.6354741,15.2799167 C12.6943189,19.0988939 11.512601,23.5178414 10.715609,29.8883587 C10.6780545,30.1841774 10.4260214,30.4 10.1364338,30.4 Z" id="Path" fill="#FFFFFF" fill-rule="nonzero"></path>
                        <path d="M6.17875832,26.4 C6.11892194,26.4 6.05821836,26.3905387 5.99751478,26.3724764 C5.67752019,26.2735633 5.49887823,25.9355385 5.59947273,25.6181565 C5.69312968,25.3205571 7.9443653,18.2891259 12.4945322,13.7761083 C12.7312762,13.5412972 13.1163103,13.5412972 13.3530543,13.7761083 C13.5897982,14.0109194 13.5897982,14.39281 13.3530543,14.6276211 C9.01188112,18.9333513 6.77972376,25.9071547 6.75804391,25.976824 C6.67739487,26.2348581 6.43804933,26.4 6.17875832,26.4 Z" id="Path" fill="#FFFFFF" fill-rule="nonzero"></path>
                        <path d="M24.1786022,8.8 C24.1280011,8.8 24.0761952,8.78255294 24.028606,8.74516639 C23.8846337,8.6305143 23.8346349,8.37711656 23.9177654,8.17772161 L24.9068973,5.80741421 C24.9894253,5.60968089 25.1737581,5.54155429 25.3183328,5.65454476 C25.4623051,5.76919685 25.5123039,6.02259459 25.4291734,6.22198954 L24.4400415,8.59229693 C24.3840188,8.7252269 24.2828165,8.8 24.1786022,8.8 Z" id="Path" fill="#FFFFFF" fill-rule="nonzero"></path>
                        <path d="M19.5359298,15.2 C19.4630011,15.2 19.3883359,15.1837188 19.3197482,15.1488306 C19.1122487,15.0418399 19.0401881,14.8053751 19.1599996,14.6193044 L22.2707566,9.79464674 C22.3896999,9.60935135 22.6553688,9.54500191 22.8637365,9.65121725 C23.0721043,9.7574326 23.1432966,9.99467272 23.0234852,10.1807434 L19.9127281,15.0054011 C19.8328538,15.1302235 19.6861282,15.2 19.5359298,15.2 Z" id="Path" fill="#FFFFFF" fill-rule="nonzero"></path>
                        <path d="M31.4451726,43.2 C31.2500667,43.2 31.0784382,43.0490254 31.0460555,42.8376609 C31.0104345,42.6030032 31.1602046,42.3812862 31.3812167,42.3433269 C33.6965818,41.9430284 34.4211453,40.2400347 34.7660213,38.9934157 C35.2177604,37.3568508 35.0242736,34.8610246 34.2049906,31.7776915 C33.8512093,30.445664 33.1185501,28.8599991 32.0272521,27.0646952 C31.9058169,26.8654087 31.9592484,26.5979679 32.1462587,26.4685611 C32.3332689,26.3408797 32.584235,26.3960933 32.7056703,26.5962425 C33.8414945,28.4640142 34.607346,30.1281859 34.9829856,31.5430338 C35.8565097,34.8291043 36.0443295,37.4181034 35.5415877,39.2375632 C35.3076225,40.0838838 34.5968216,42.6608049 31.5107476,43.193961 C31.4880797,43.1982746 31.4662214,43.2 31.4451726,43.2 Z" id="Path" fill="#FFFFFF" fill-rule="nonzero"></path>
                        <path d="M6.56477948,12.2993624 C8.12620047,12.2993624 10.335261,13.3147621 11.6470194,14.2006866 C10.7274702,14.5592938 9.30941976,14.9014223 7.84275518,14.9014223 C6.65459208,14.9014223 5.72433124,14.6534576 5.35272128,14.2383521 C5.27856408,14.1551741 5.05279661,13.9032859 5.15579272,13.2880824 C5.27856408,12.6940657 5.56530525,12.2993624 6.56477948,12.2993624 L6.56477948,12.2993624 Z M6.56477948,11.2 C5.30822696,11.2 4.30875273,11.7037764 4.02448347,13.0746444 C3.65699336,15.250613 5.60073591,16 7.84275518,16 C10.1605796,16 12.79728,15.1996077 13.5306122,14.3466405 C12.6390779,13.2260912 9.08530023,11.2 6.56477948,11.2 L6.56477948,11.2 Z" id="Shape" fill="#FFFFFF" fill-rule="nonzero"></path>
                    </g>
                </g>
            </g>
        </g>
    </g>
</svg>